<svg width="86" height="25" viewBox="0 0 86 25" fill="none" xmlns="http://www.w3.org/2000/svg">
<path d="M3.67245 16.6664C5.36357 15.8982 7.00278 15.02 8.57956 14.0373C10.5654 12.9918 13.0266 12.3076 15.0048 13.3685C15.7515 11.2972 17.2358 9.57586 19.1721 8.53565C21.1084 7.49543 23.36 7.20978 25.4937 7.73364C26.1061 6.28618 27.0692 5.01486 28.2956 4.03493C29.522 3.05499 30.973 2.39744 32.5169 2.12187C33.3987 1.95275 38.0221 1.76825 41.3574 4.29739C44.4243 -0.215092 52.0303 -1.08376 56.692 1.26857C59.3372 2.58311 61.5761 3.93608 62.6572 6.38067C63.3699 7.89639 63.6966 9.5657 63.6079 11.2391C65.4174 9.66317 69.0287 9.26343 71.4209 10.2167C74.0048 11.2391 74.1812 13.1994 74.2962 15.1904C75.8367 14.7603 77.463 14.7444 79.0116 15.1443C80.637 15.6439 81.5648 16.9354 81.3118 17.9732C82.5999 17.9117 85.6668 18.9879 85.3064 20.3486C84.9461 21.7093 82.3775 21.6785 81.2658 21.6708C79.5329 21.6708 77.9075 20.3563 76.2897 20.9021C75.5229 21.1558 74.8712 21.5786 74.1198 21.7938C70.7615 22.724 67.2576 19.2109 63.976 20.387C63.1492 20.7589 62.3756 21.2398 61.6758 21.8169C59.4197 23.4328 56.7197 24.3083 53.9471 24.323C51.1573 24.3037 48.4834 23.2016 46.4868 21.248C44.931 22.7253 42.9872 23.727 40.8835 24.1355C38.7798 24.544 36.6035 24.3423 34.6101 23.5542C32.862 22.8316 31.1675 21.6324 29.243 21.8015C27.6175 21.9476 26.2604 23.093 24.6809 23.5235C23.5551 23.7772 22.3871 23.7772 21.2613 23.5235C19.6701 23.2098 18.1101 22.7544 16.5996 22.1628C15.1504 21.617 14.4297 20.6254 12.7659 21.0789C10.2872 21.8654 7.65232 22.0212 5.09859 21.5325C3.64946 21.1788 -0.191874 20.3947 0.00747584 18.2346C0.245163 16.5741 2.49935 17.0969 3.67245 16.6664Z" fill="#F5F5F5"/>
</svg>
