<svg width="80" height="20" viewBox="0 0 80 20" fill="none" xmlns="http://www.w3.org/2000/svg">
<path d="M79.9566 19.2093C80.5829 14.7486 74.2999 11.0989 69.5928 10.7136C67.3346 10.8054 65.0739 10.6078 62.8655 10.1256C58.2593 8.50354 56.4209 2.52212 51.9158 0.616182C48.542 -0.803135 44.6834 0.453986 41.4106 2.11661C38.1379 3.77924 34.9257 5.82711 31.3095 6.07042C28.1377 6.27318 24.6831 5.09717 21.9154 6.63815C19.8951 7.81415 18.7638 10.1864 16.8648 11.6058C14.8718 12.8272 12.5732 13.4532 10.2384 13.4103C7.9193 13.348 5.60935 13.7264 3.43028 14.5255C2.35259 14.9515 1.43943 15.7131 0.824905 16.6985C0.21038 17.6838 -0.0731207 18.841 0.0160856 20L79.9566 19.2093Z" fill="#EBEBEB"/>
</svg>
